name C:\Users\u0101727\Documents\MyRepositories\upper-imu-dc\Results\main_mocap_tracking\Case_2\kinematics.mot
datacolumns 15
datarows 25
range 0.50000000 0.74000000
endheader 
time	ground_thorax_rot_x	ground_thorax_rot_y	ground_thorax_rot_z	clav_prot	clav_elev	scapula_abduction	scapula_elevation	scapula_upward_rot	scapula_winging	plane_elv	shoulder_elv	axial_rot	elbow_flexion	pro_sup	
          0.50000000	          2.29772000	         -4.79915775	         -7.28619981	        -22.78666748	         -5.95338422	        -12.67849183	         -5.21195350	         12.60508425	          6.10219632	        -26.30816653	         12.06162513	         42.86181334	          0.21400973	         34.29720505	
          0.51000000	          2.26108627	         -4.98139589	         -7.60038119	        -22.80114341	         -5.99963438	        -12.76879276	         -5.21730602	         12.49114584	          6.11762057	        -25.94723874	         12.25940045	         42.48297091	          0.11887036	         34.30659519	
          0.52000000	          2.18749289	         -5.09241810	         -7.95143947	        -22.81662851	         -6.03052506	        -12.81955271	         -5.22778791	         12.43673237	          6.14286953	        -25.54095034	         12.40255805	         42.07030942	          0.07293189	         34.31085913	
          0.53000000	          2.09143038	         -5.15036154	         -8.31599317	        -22.82498185	         -6.05576354	        -12.84572253	         -5.23970346	         12.40604562	          6.16002133	        -25.08197631	         12.52108209	         41.59531395	          0.05262450	         34.31264958	
          0.54000000	          1.98416021	         -5.16921994	         -8.67715671	        -22.82736583	         -6.07464326	        -12.85938936	         -5.24803506	         12.38176866	          6.17301995	        -24.56284297	         12.62986751	         41.03003849	          0.04460358	         34.31338353	
          0.55000000	          1.87403667	         -5.16009620	         -9.02303351	        -22.82481032	         -6.08823911	        -12.86787629	         -5.25101136	         12.35376498	          6.18473710	        -23.97859463	         12.73842125	         40.35827465	          0.04099649	         34.31380660	
          0.56000000	          1.76711162	         -5.13180557	         -9.34556995	        -22.81845741	         -6.09841335	        -12.87526570	         -5.24896465	         12.31757736	          6.19698118	        -23.32883371	         12.85068442	         39.57984046	          0.03739032	         34.31434928	
          0.57000000	          1.66756204	         -5.09131878	         -9.63969737	        -22.80968177	         -6.10760321	        -12.88354238	         -5.24377069	         12.27288592	          6.21079528	        -22.61805023	         12.96650852	         38.71155581	          0.03171699	         34.31519353	
          0.58000000	          1.57811907	         -5.04403647	         -9.90258281	        -22.79987502	         -6.11822229	        -12.89319566	         -5.23799370	         12.22205298	          6.22657236	        -21.85455909	         13.08288669	         37.78452929	          0.02343442	         34.31635725	
          0.59000000	          1.50043410	         -4.99401057	        -10.13298336	        -22.79030552	         -6.13240694	        -12.90386710	         -5.23430437	         12.16867674	          6.24430119	        -21.04844632	         13.19553959	         36.83814738	          0.01287809	         34.31775837	
          0.60000000	          1.43537072	         -4.94419998	        -10.33074330	        -22.78192953	         -6.15191715	        -12.91476949	         -5.23506136	         12.11633105	          6.26382538	        -20.20901071	         13.30043097	         35.91219142	          0.00070748	         34.31929607	
          0.61000000	          1.38323501	         -4.89672285	        -10.49644225	        -22.77522417	         -6.17739528	        -12.92491491	         -5.24156763	         12.06795534	          6.28470695	        -19.34336970	         13.39443333	         35.03949993	         -0.01222346	         34.32084056	
          0.62000000	          1.34392559	         -4.85309156	        -10.63116893	        -22.77052643	         -6.20974464	        -12.93382177	         -5.25494987	         12.02508173	          6.30694474	        -18.45436583	         13.47677153	         34.23913281	         -0.02531210	         34.32231440	
          0.63000000	          1.31713395	         -4.81426056	        -10.73637062	        -22.76770330	         -6.24846250	        -12.94113783	         -5.27493450	         11.98815690	          6.33025649	        -17.54184543	         13.54839839	         33.51442132	         -0.03773014	         34.32362441	
          0.64000000	          1.30247203	         -4.78065229	        -10.81375338	        -22.76663581	         -6.29287645	        -12.94711809	         -5.30086359	         11.95666755	          6.35452997	        -16.60274113	         13.61226076	         32.85269543	         -0.04892144	         34.32473259	
          0.65000000	          1.29958552	         -4.75223317	        -10.86523040	        -22.76672111	         -6.34104695	        -12.95170445	         -5.33095891	         11.92968094	          6.37925152	        -15.63218622	         13.67208503	         32.22843324	         -0.05803128	         34.32559092	
          0.66000000	          1.30811891	         -4.72861741	        -10.89291492	        -22.76803141	         -6.39132032	        -12.95594294	         -5.36369757	         11.90624534	          6.40404080	        -14.62360117	         13.73246716	         31.60687544	         -0.06406440	         34.32610992	
          0.67000000	          1.32769932	         -4.70939363	        -10.89910382	        -22.76931737	         -6.44137129	        -12.95879547	         -5.39693314	         11.88532216	          6.42821349	        -13.56900832	         13.79795292	         30.95021491	         -0.06509620	         34.32611118	
          0.68000000	          1.35763628	         -4.69437623	        -10.88636898	        -22.76916592	         -6.48922655	        -12.95891720	         -5.42875148	         11.86576520	          6.45122299	        -12.46131140	         13.87401364	         30.22325173	         -0.05966430	         34.32548083	
          0.69000000	          1.39679728	         -4.68383694	        -10.85757029	        -22.76688772	         -6.53399081	        -12.95541832	         -5.45837002	         11.84739431	          6.47272731	        -11.29411329	         13.96598164	         29.39716717	         -0.04753899	         34.32421846	
          0.70000000	          1.44337653	         -4.67856852	        -10.81587731	        -22.76253263	         -6.57702475	        -12.94835408	         -5.48671414	         11.82972211	          6.49335794	        -10.06416576	         14.08185425	         28.45161951	         -0.03148700	         34.32257956	
          0.71000000	          1.49542525	         -4.67975912	        -10.76451303	        -22.75441259	         -6.61953100	        -12.93464293	         -5.51456621	         11.81258008	          6.51353855	         -8.76916930	         14.22814154	         27.37472640	         -0.01400397	         34.32086167	
          0.72000000	          1.55109443	         -4.68844108	        -10.70647260	        -22.74016744	         -6.66186897	        -12.90994514	         -5.54215112	         11.79631116	          6.53321506	         -7.40945637	         14.40920154	         26.16301084	          0.00302726	         34.31918793	
          0.73000000	          1.60864694	         -4.70538768	        -10.64443657	        -22.71700068	         -6.70418433	        -12.86924794	         -5.56948785	         11.78120351	          6.55223642	         -5.98841945	         14.62793254	         24.82056570	          0.01738815	         34.31776050	
          0.74000000	          1.66654054	         -4.73108741	        -10.58071210	        -22.68193952	         -6.74583454	        -12.80717422	         -5.59608398	         11.76795620	          6.57002246	         -4.51179434	         14.88455678	         23.35877157	          0.02774982	         34.31671665	
